<svg width="41" height="31" viewBox="0 0 41 31" fill="none" xmlns="http://www.w3.org/2000/svg">
    <path fill-rule="evenodd" clip-rule="evenodd" d="M38.5099 14.4546H2.39922C1.86276 14.4546 1.39335 14.783 1.02454 15.2522C0.689247 15.7683 0.454544 16.4252 0.454544 17.176V18.0675V25.1994V30.4546H3.23158V25.1994H37.6775V30.4546H40.4545V18.0675V17.176C40.4545 16.4252 40.2534 15.7683 39.8846 15.2522C39.5157 14.783 39.0463 14.4546 38.5099 14.4546Z" fill="#FD90AA"/>
    <path d="M22.3155 10.4665C21.8126 10.4665 21.4102 10.8132 21.4102 11.286V14.4382H19.4991V11.286C19.4991 10.8132 19.0967 10.4665 18.5938 10.4665H9.13865C8.66925 10.4665 8.2669 10.8132 8.2669 11.286V14.4382H6.22163V6.4002C6.22163 6.14803 6.32222 5.89586 6.52339 5.73825C6.69104 5.54912 6.95927 5.45456 7.2275 5.45456H33.6818C33.95 5.45456 34.2183 5.54912 34.3859 5.73825C34.5871 5.89586 34.6877 6.14803 34.6877 6.4002V14.4382H32.6424V11.286C32.6424 10.8132 32.2401 10.4665 31.7707 10.4665H22.3155Z" fill="#FFC4CD"/>
</svg>
