<svg width="39" height="32" viewBox="0 0 39 32" fill="none" xmlns="http://www.w3.org/2000/svg">
    <path d="M37.6945 0.454559H17.6763C17.2583 0.454559 16.9163 0.796566 16.9163 1.21455V3.05363H26.5985C27.8558 3.05363 28.8785 4.07636 28.8785 5.33362V16.7412H29.6082L34.6318 21.7648C34.7762 21.9092 34.9738 21.9928 35.1714 21.9928C35.2702 21.9928 35.369 21.97 35.4602 21.932C35.749 21.818 35.9313 21.5368 35.9313 21.2328V16.7412H37.6945C38.1125 16.7412 38.4545 16.4068 38.4545 15.9812V1.21455C38.4545 0.796566 38.1125 0.454559 37.6945 0.454559Z" fill="url(#paint0_linear_602_4266)"/>
    <path d="M26.5984 4.5737H1.21454C0.796551 4.5737 0.454544 4.91571 0.454544 5.33369V24.0676C0.454544 24.4856 0.796551 24.8276 1.21454 24.8276H3.65414V30.7175C3.65414 31.0215 3.83653 31.3027 4.11772 31.4167C4.21652 31.4547 4.31533 31.4775 4.41413 31.4775C4.61174 31.4775 4.80173 31.4015 4.94614 31.2571L11.3757 24.8276H26.5984C27.0164 24.8276 27.3584 24.4856 27.3584 24.0676V5.33369C27.3584 4.91571 27.0164 4.5737 26.5984 4.5737ZM19.5532 15.7684L14.4385 20.8756C14.2941 21.0276 14.0964 21.096 13.9065 21.096C13.7088 21.096 13.5112 21.0276 13.3668 20.8756L8.2597 15.7684C7.43129 14.94 6.97531 13.8456 6.97531 12.6753C6.97531 11.5048 7.43129 10.4029 8.2597 9.57447C9.7949 8.04688 12.1965 7.89487 13.9065 9.12606C15.6164 7.89487 18.018 8.05449 19.5456 9.58208C20.374 10.4104 20.83 11.5048 20.83 12.6753C20.8376 13.8456 20.3816 14.94 19.5532 15.7684Z" fill="#FFC4CD"/>
    <defs>
        <linearGradient id="paint0_linear_602_4266" x1="19.1038" y1="27.7139" x2="6.73967" y2="10.8271" gradientUnits="userSpaceOnUse">
            <stop offset="0.298343" stop-color="#4552CB"/>
            <stop offset="1" stop-color="#4596EA"/>
        </linearGradient>
    </defs>
</svg>
