<svg width="39" height="33" viewBox="0 0 39 33" fill="none" xmlns="http://www.w3.org/2000/svg">
    <path fill-rule="evenodd" clip-rule="evenodd" d="M20.6989 0.484029L20.6664 0.492715C20.2145 0.451634 19.7216 0.410553 19.2697 0.410553C13.5183 0.451634 9.08157 4.35434 7.64373 5.79217L7.60265 5.83325C6.2059 7.23001 5.26103 8.9965 4.80914 10.8451L4.76806 10.763C2.05671 12.7349 0.454544 15.857 0.454544 19.1435C0.454544 24.7306 5.01454 29.2905 10.6016 29.2905L18.4891 29.3316C19.9823 29.3264 20.0933 29.3264 21.7345 29.3264C23.3758 29.3264 24.9799 29.3316 24.9799 29.3316H28.3486C28.6362 30.8516 29.9918 32.0019 31.594 32.0019C33.4016 32.0019 34.8805 30.523 34.8805 28.7154C34.8805 26.9078 33.4016 25.4289 31.594 25.4289C31.2654 25.4289 30.9778 25.7165 30.9778 26.0451C30.9778 26.3738 31.2654 26.6614 31.594 26.6614C32.7443 26.6614 33.6481 27.5651 33.6481 28.7154C33.6481 29.8657 32.7443 30.7695 31.594 30.7695C30.6902 30.7695 29.9097 30.1533 29.6632 29.3316H31.594C31.9226 29.3316 32.2102 29.0441 32.2102 28.7154C32.2102 28.3868 31.9226 28.0992 31.594 28.0992H25.021C25.021 28.0992 23.4169 28.102 21.7756 28.102C20.9303 28.102 20.4801 28.1012 20.0438 28.1005H20.0435H20.043H20.0422H20.0418C19.6317 28.0998 19.2333 28.0992 18.5302 28.0992L10.6427 28.0581C5.71292 28.0581 1.72806 24.0322 1.72806 19.1435C1.72806 16.6376 2.79617 14.2549 4.60373 12.5706C4.56265 12.8581 4.56265 13.1457 4.56265 13.4743C4.56265 19.4722 9.4513 24.3608 15.4491 24.3608C19.1054 24.3608 22.6383 22.3478 24.6513 19.1435L27.0751 21.5673C29.4989 23.9911 33.4427 23.9911 35.8664 21.5673L36.647 20.7868C37.8383 19.5954 38.4545 18.0343 38.4545 16.3911C38.4135 14.7478 37.7972 13.1457 36.6059 11.9954L31.9146 7.30415L27.2811 3.15114C24.4928 0.825366 21.4728 0.523183 20.6989 0.484029ZM29.9341 10.8361C29.3599 10.2613 28.583 9.95707 27.7724 9.95707C26.9617 9.95707 26.1848 10.2613 25.6106 10.8361C25.0364 11.4108 24.7323 12.1884 24.7323 12.9998C24.7323 13.8112 25.0364 14.5887 25.6106 15.1635L29.0221 18.5781C29.6301 19.1866 30.407 19.4571 31.1839 19.4571C31.9608 19.4571 32.7377 19.1528 33.3457 18.5781C34.5279 17.3948 34.5279 15.4677 33.3457 14.2845L29.9341 10.8361Z" fill="#FD90AA"/>
    <path d="M9.99655 18.3585C7.12544 15.4863 7.12544 10.798 9.99655 7.92586C12.8677 5.01149 17.5543 5.01149 20.4677 7.88362C21.861 9.27745 22.621 11.1359 22.621 13.121C22.621 15.1062 21.861 16.9646 20.4677 18.3585C19.0743 19.7523 17.2166 20.5126 15.2321 20.5126C13.2477 20.5126 11.3899 19.7523 9.99655 18.3585Z" fill="#FFCF6F"/>
</svg>
