<svg width="33" height="33" viewBox="0 0 33 33" fill="none" xmlns="http://www.w3.org/2000/svg">
    <path d="M1.94755 21.3825L0.047547 29.5825C-0.0179966 29.8823 -0.0157497 30.1929 0.0541233 30.4917C0.123996 30.7904 0.259731 31.0698 0.45141 31.3094C0.64309 31.549 0.885873 31.7428 1.16202 31.8765C1.43817 32.0103 1.74072 32.0807 2.04755 32.0825C2.19052 32.097 2.33458 32.097 2.47755 32.0825L10.7275 30.1825L26.5675 14.4025L17.7275 5.58252L1.94755 21.3825Z" fill="#0C0C0D"/>
    <path d="M31.5475 6.50259L25.6475 0.602587C25.2596 0.216652 24.7347 0 24.1875 0C23.6403 0 23.1154 0.216652 22.7275 0.602587L19.4475 3.88259L28.2775 12.7126L31.5575 9.43259C31.7495 9.23967 31.9015 9.01079 32.0049 8.75905C32.1083 8.50731 32.161 8.23766 32.1601 7.96551C32.1592 7.69337 32.1046 7.42408 31.9995 7.17305C31.8944 6.92203 31.7408 6.69419 31.5475 6.50259V6.50259Z" fill="#0C0C0D"/>
</svg>
