<svg width="35" height="33" viewBox="0 0 35 33" fill="none" xmlns="http://www.w3.org/2000/svg">
    <path fill-rule="evenodd" clip-rule="evenodd" d="M26.7569 9.61003C28.174 9.61003 29.3227 8.46129 29.3227 7.04424C29.3227 5.6272 28.174 4.47845 26.7569 4.47845C25.3399 4.47845 24.1911 5.6272 24.1911 7.04424C24.1911 8.46129 25.3399 9.61003 26.7569 9.61003ZM15.6386 20.7285C16.8602 20.7285 17.9822 20.3016 18.8634 19.5889C19.621 20.7876 20.9579 21.5836 22.4808 21.5836C24.8426 21.5836 26.7571 19.669 26.7571 17.3073C26.7571 14.9456 24.8426 13.031 22.4808 13.031C21.7105 13.031 20.9877 13.2347 20.3634 13.5912C19.5824 11.7538 17.761 10.4653 15.6386 10.4653C12.8045 10.4653 10.507 12.7628 10.507 15.5969C10.507 18.431 12.8045 20.7285 15.6386 20.7285Z" fill="#FFC4CD"/>
    <path fill-rule="evenodd" clip-rule="evenodd" d="M7.23096 4.95049C7.23096 3.34197 8.5171 2.05757 10.0796 2.05757C11.6422 2.05757 12.9283 3.34197 12.9283 4.95049C12.9283 5.50278 13.376 5.95049 13.9283 5.95049C14.4806 5.95049 14.9283 5.50278 14.9283 4.95049C14.9283 2.25901 12.7682 0.0575714 10.0796 0.0575714C7.39105 0.0575714 5.23096 2.25901 5.23096 4.95049V11.5228C4.31068 11.9126 3.66506 12.8242 3.66506 13.8865V16.4523H1.95462C1.00992 16.4523 0.244095 17.2181 0.244095 18.1628C0.244095 19.1075 1.00992 19.8733 1.95462 19.8733H1.95469V21.7024C1.95469 27.7775 6.87956 32.7024 12.9547 32.7024H21.7442C27.8193 32.7024 32.7442 27.7775 32.7442 21.7024V19.8733C33.6888 19.8733 34.4546 19.1075 34.4546 18.1628C34.4546 17.2181 33.6888 16.4523 32.7441 16.4523H8.79664V13.8865C8.79664 12.8242 8.15112 11.9128 7.23096 11.5229V4.95049Z" fill="url(#paint0_linear_602_2572)"/>
    <defs>
        <linearGradient id="paint0_linear_602_2572" x1="3.7186" y1="41.3737" x2="-14.7398" y2="14.9542" gradientUnits="userSpaceOnUse">
            <stop offset="0.298343" stop-color="#4552CB"/>
            <stop offset="1" stop-color="#4596EA"/>
        </linearGradient>
    </defs>
</svg>
