<svg width="30" height="26" viewBox="0 0 30 26" fill="none" xmlns="http://www.w3.org/2000/svg">
    <path fill-rule="evenodd" clip-rule="evenodd" d="M21.4103 11.2C21.4103 15.7287 17.7367 19.4 13.2051 19.4C8.67356 19.4 5 15.7287 5 11.2C5 6.67126 8.67356 3 13.2051 3C17.7367 3 21.4103 6.67126 21.4103 11.2ZM7.05128 11.2C7.05128 14.5965 9.80645 17.35 13.2051 17.35C16.6038 17.35 19.359 14.5965 19.359 11.2C19.359 7.80345 16.6038 5.05 13.2051 5.05C9.80645 5.05 7.05128 7.80345 7.05128 11.2Z" />
    <path fill-rule="evenodd" clip-rule="evenodd" d="M23.923 23.6657C24.3132 24.0762 24.9623 24.0928 25.373 23.703C25.7837 23.3131 25.8004 22.6643 25.4103 22.2539L19.7693 16.3191C19.3791 15.9086 18.73 15.892 18.3193 16.2818C17.9086 16.6717 17.8919 17.3205 18.282 17.7309L23.923 23.6657Z" />
</svg>
