<svg width="24" height="24" viewBox="0 0 24 24" fill="none" xmlns="http://www.w3.org/2000/svg">
    <path d="M17.8571 7.2453C17.8559 7.23022 17.8514 7.21612 17.8489 7.20112C17.8453 7.17673 17.8423 7.15215 17.836 7.12854C17.8306 7.10986 17.8225 7.09258 17.8154 7.07454C17.8081 7.05486 17.802 7.03479 17.7922 7.01594C17.7816 6.99473 17.7679 6.97582 17.755 6.95641C17.7457 6.94239 17.7384 6.92717 17.728 6.91389C17.7029 6.88185 17.6748 6.85212 17.6442 6.82543C17.6434 6.82465 17.6429 6.82392 17.6421 6.82314C17.6337 6.81594 17.6243 6.81109 17.6155 6.80445C17.5924 6.78637 17.5693 6.7686 17.5439 6.75392C17.53 6.74572 17.5149 6.74016 17.5004 6.73313C17.4782 6.72249 17.4561 6.71124 17.4325 6.7032C17.4164 6.69778 17.4003 6.69456 17.384 6.69037C17.361 6.68433 17.3384 6.67804 17.3142 6.67465C17.2951 6.67185 17.2761 6.67192 17.2567 6.67096C17.2389 6.66997 17.2214 6.66684 17.203 6.66763L13.6801 6.77602C13.3314 6.78673 13.0586 7.07404 13.0716 7.41813C13.0843 7.76246 13.3789 8.03313 13.7269 8.02163L15.7897 7.95833L14.0024 9.96844C13.4615 9.61016 12.841 9.35178 12.161 9.22953C9.52177 8.75507 6.99521 10.4826 6.52821 13.0803C6.06121 15.6781 7.82819 18.1775 10.4671 18.6519C13.106 19.1263 15.6328 17.3988 16.0998 14.8011C16.3676 13.3117 15.8985 11.8566 14.9544 10.7949L16.7131 8.81668L16.8631 10.72C16.8859 11.0096 17.1058 11.2383 17.3832 11.2882C17.4346 11.2974 17.4881 11.3004 17.5428 11.2966C17.8908 11.2718 18.1515 10.9735 18.1245 10.6301L17.8571 7.2453ZM14.8544 14.5769C14.5089 16.4987 12.6396 17.7764 10.6876 17.4255C8.73555 17.0746 7.42832 15.2255 7.77376 13.3039C8.11921 11.3824 9.98861 10.1044 11.9406 10.4553C13.8926 10.8062 15.1999 12.655 14.8544 14.5769Z"/>
</svg>
