<svg fill="currentColor" width="20" height="20" viewBox="0 0 20 20" version="1.1" xmlns="http://www.w3.org/2000/svg">
    <g transform="translate(-16.000000, -55.000000)">
        <path d="M26.78125,64.21875 L26.78125,55.78125 C26.78125,55.3497656 26.4314844,55 26,55 C25.5685156,55 25.21875,55.3497656 25.21875,55.78125 L25.21875,64.21875 L16.78125,64.21875 C16.3497656,64.21875 16,64.5685156 16,65 C16,65.4314844 16.3497656,65.78125 16.78125,65.78125 L25.21875,65.78125 L25.21875,74.21875 C25.21875,74.6502344 25.5685156,75 26,75 C26.4314844,75 26.78125,74.6502344 26.78125,74.21875 L26.78125,65.78125 L35.21875,65.78125 C35.6502344,65.78125 36,65.4314844 36,65 C36,64.5685156 35.6502344,64.21875 35.21875,64.21875 L26.78125,64.21875 Z" transform="translate(26.000000, 65.000000) scale(1, -1) rotate(-180.000000) translate(-26.000000, -65.000000) " />
    </g>
</svg>