<svg width="48" height="51" viewBox="0 0 48 51" fill="none" xmlns="http://www.w3.org/2000/svg">
    <g filter="url(#filter0_d_2_3)">
        <path d="M25.5134 19.9387C25.2743 19.8269 25.1234 19.7765 24.9186 19.7106C24.1209 19.4522 23.2766 19.4225 22.385 19.6078C22.0205 19.6834 21.6376 19.8061 21.2224 19.9642C20.808 20.1221 20.3767 20.3129 19.9012 20.5562C19.4023 20.8124 18.9993 21.0354 17.9179 21.6568C16.5192 22.4605 15.8098 22.8306 14.9999 23.1873C14.4139 23.4453 13.8787 23.6427 13.2495 23.8243C11.8635 24.2239 10.6527 24.8274 9.62951 25.6318C8.7493 26.3248 8.06987 27.1076 7.57601 28.0059C7.48624 28.168 7.28987 28.5885 7.22596 28.7566C6.8108 29.8325 6.70107 30.907 6.92984 31.983C7.11542 32.8535 7.53182 33.7286 8.05393 34.337C8.81906 35.2296 9.85522 35.7839 11.4413 36.1775C11.9329 36.3006 12.5627 36.4317 13.5782 36.6024C15.0206 36.8473 15.7973 37.0255 16.4902 37.2588C17.4805 37.5918 18.4703 38.1477 19.5772 39.0085C19.9132 39.2685 20.2175 39.5124 20.9115 40.1047C21.7183 40.7934 22.0297 41.058 22.4357 41.3545C22.7129 41.5555 23.0511 41.7647 23.2787 41.893C23.3395 41.9275 23.4045 41.9662 23.4191 41.9762C23.4343 41.9843 23.6159 42.085 23.8296 42.1828C24.2458 42.3746 24.3417 42.3993 24.6516 42.485C25.5853 42.7421 26.6265 42.7265 27.664 42.4354C27.8196 42.3928 28.2433 42.2386 28.3922 42.1703C29.2953 41.7631 30.0486 41.1386 30.6112 40.3158C30.8087 40.0289 30.927 39.8173 31.0865 39.4752C31.2052 39.2213 31.262 39.0554 31.3399 38.8255C31.793 37.4896 31.8575 35.9724 31.5156 34.3516C31.3514 33.5739 31.1 32.8046 30.7426 31.9818C30.3901 31.169 30.1805 30.5281 29.9777 29.6981C29.7883 28.9199 29.6759 28.2673 29.4907 26.8902C29.336 25.7368 29.2805 25.3044 29.1903 24.8395C28.9344 23.5421 28.5521 22.6085 27.9621 21.833C27.382 21.0701 26.5472 20.4215 25.5134 19.9387Z" fill="#F1A852"/>
        <path d="M27.62 12.4454C28.0846 10.9024 28.0845 9.32225 27.6308 7.94189C27.3746 7.16561 26.954 6.47328 26.4236 5.97459C25.8637 5.448 25.1663 5.11541 24.4309 5.02929C23.9959 4.97867 23.5878 5.00913 23.1289 5.12436C22.989 5.1608 22.5404 5.32363 22.4018 5.38901C21.4558 5.83735 20.6163 6.63144 19.9732 7.65385C19.7848 7.95506 19.7456 8.03689 19.5387 8.48005C19.3271 8.93456 19.2647 9.05866 19.1466 9.42514C18.4901 11.4685 18.6653 13.6324 19.609 15.1601C19.9871 15.7744 20.4798 16.249 21.0579 16.5711C21.1734 16.6352 21.4343 16.7453 21.5596 16.7892C21.9953 16.9409 22.4625 17.0149 22.9233 16.9833C23.0717 16.9736 23.348 16.9213 23.4903 16.8889C24.7872 16.5907 26.0057 15.5945 26.8462 14.175C27.1563 13.6509 27.4411 13.0394 27.62 12.4454Z" fill="#F1A852"/>
        <path d="M41.988 23.2767C41.8107 23.1455 41.6913 23.0634 41.4704 22.9533C40.8664 22.6543 40.2037 22.5387 39.4521 22.5515C38.8592 22.5627 38.3296 22.644 37.732 22.8435C37.5549 22.9023 37.3947 22.954 37.2207 23.0296C36.0049 23.559 34.8824 24.4956 34.1646 25.5904C33.2631 26.9641 33.0174 28.4937 33.4714 29.7409C33.7379 30.4731 34.2467 31.0837 34.9288 31.4828C34.9707 31.5075 35.129 31.5781 35.2776 31.6452C35.565 31.775 35.6634 31.8151 35.9185 31.8793C36.8264 32.1064 37.8894 32.0337 38.8812 31.6921C39.3932 31.5154 39.8078 31.3315 40.2545 31.0584C41.3017 30.4178 42.1278 29.5531 42.6943 28.5217C42.794 28.341 43.0156 27.8464 43.0757 27.6701C43.4268 26.6424 43.4457 25.6936 43.137 24.8416C43.0017 24.4699 42.8537 24.1959 42.6134 23.8953C42.4221 23.6542 42.235 23.4585 41.988 23.2767Z" fill="#F1A852"/>
        <path d="M11.4371 20.4964C11.6617 20.567 11.808 20.6134 12.0228 20.6392C13.5863 20.8295 15.0896 19.8851 15.9751 18.1538C16.5199 17.0882 16.7663 15.8173 16.6708 14.559C16.5347 12.7716 15.7019 11.1768 14.4848 10.3872C14.1676 10.1827 13.8115 10.0195 13.4718 9.93156C12.7697 9.74994 12.0624 9.80723 11.3907 10.0881C10.9869 10.2557 10.5926 10.4954 10.231 10.821C9.95299 11.0727 9.63408 11.4399 9.40319 11.7908C9.23123 12.054 9.19326 12.1354 9.00693 12.5364C8.81563 12.9466 8.78535 13.0371 8.68579 13.3665C8.20588 14.9471 8.29923 16.7351 8.95523 18.1468C9.38803 19.0778 10.0268 19.7873 10.8065 20.2352C10.9412 20.3121 11.2848 20.4482 11.4371 20.4964Z" fill="#F1A852"/>
        <path d="M37.9929 11.076C37.8451 10.981 37.4499 10.8009 37.2685 10.7379C36.4351 10.4487 35.5107 10.4344 34.5202 10.7133C34.3424 10.7627 33.9384 10.9119 33.7527 10.9926C32.1966 11.6701 30.827 12.9674 29.9569 14.5794C29.8425 14.7922 29.5665 15.3711 29.4937 15.5728C29.1057 16.6559 28.9902 17.6869 29.1415 18.6414C29.3373 19.8887 29.9847 20.8676 30.9976 21.4185C31.6561 21.7757 32.5009 21.9213 33.3534 21.8309C35.4922 21.605 37.6369 20.0049 38.844 17.7607C38.9464 17.5716 39.2074 17.0201 39.2695 16.8482C39.6657 15.7647 39.7859 14.7311 39.6506 13.7915C39.4746 12.5892 38.9153 11.6686 37.9929 11.076Z" fill="#F1A852"/>
    </g>
    <defs>
        <filter id="filter0_d_2_3" x="2.81257" y="5.0057" width="44.5421" height="45.6608" filterUnits="userSpaceOnUse" color-interpolation-filters="sRGB">
            <feFlood flood-opacity="0" result="BackgroundImageFix"/>
            <feColorMatrix in="SourceAlpha" type="matrix" values="0 0 0 0 0 0 0 0 0 0 0 0 0 0 0 0 0 0 127 0" result="hardAlpha"/>
            <feOffset dy="4"/>
            <feGaussianBlur stdDeviation="2"/>
            <feComposite in2="hardAlpha" operator="out"/>
            <feColorMatrix type="matrix" values="0 0 0 0 0 0 0 0 0 0 0 0 0 0 0 0 0 0 0.25 0"/>
            <feBlend mode="normal" in2="BackgroundImageFix" result="effect1_dropShadow_2_3"/>
            <feBlend mode="normal" in="SourceGraphic" in2="effect1_dropShadow_2_3" result="shape"/>
        </filter>
    </defs>
</svg>
