<svg width="33" height="34" viewBox="0 0 33 34" fill="none" xmlns="http://www.w3.org/2000/svg">
    <circle cx="5.95454" cy="20.9546" r="3.5" fill="#FFCF6F"/>
    <circle cx="26.9545" cy="20.9546" r="3.5" fill="#FFCF6F"/>
    <path d="M30.7638 15.9269H30.1865L27.4649 5.91687C27.2174 5.03245 26.3514 4.38923 25.403 4.38923H22.0731L21.4958 1.37918C21.3308 0.816368 20.836 0.454559 20.2174 0.454559H12.6917C12.1143 0.454559 11.5783 0.856569 11.4133 1.37918L10.836 4.38923H7.54733C6.55764 4.38923 5.69166 5.03245 5.48547 5.91687L2.76382 15.9269H2.1865C1.23805 15.9269 0.454544 16.6505 0.454544 17.535V28.0676C0.454544 28.952 1.23805 29.6757 2.1865 29.6757H3.13496V32.4093C3.13496 32.9721 3.67104 33.4546 4.37207 33.4546H7.6298C8.2896 33.4546 8.86691 32.9721 8.86691 32.4093V29.6757H24.0422V32.4093C24.0422 32.9721 24.5783 33.4546 25.2793 33.4546H28.537C29.1968 33.4546 29.7741 32.9721 29.7741 32.4093V29.6757H30.7226C31.671 29.6757 32.4545 28.952 32.4545 28.0676V17.535C32.4545 16.6505 31.7123 15.9269 30.7638 15.9269ZM29.7329 21.0324C29.7329 22.5199 28.4958 23.7259 26.97 23.7259C25.4442 23.7259 24.2071 22.5199 24.2071 21.0324C24.2071 19.545 25.4442 18.339 26.97 18.339C28.4958 18.339 29.7329 19.545 29.7329 21.0324ZM7.38238 7.0023C7.46485 6.64049 7.83599 6.39928 8.20712 6.39928H24.702C25.1143 6.39928 25.4442 6.64049 25.5267 7.0023L27.9597 15.9269H4.94939L7.38238 7.0023ZM5.93908 18.339C7.46485 18.339 8.70197 19.545 8.70197 21.0324C8.70197 22.5199 7.46485 23.7259 5.93908 23.7259C4.41331 23.7259 3.17619 22.5199 3.17619 21.0324C3.17619 19.545 4.41331 18.339 5.93908 18.339Z" fill="url(#paint0_linear_602_4028)"/>
    <path d="M19.2945 2.65448C19.2831 2.64019 19.2922 2.62896 19.2922 2.62896C19.7263 2.09861 19.1586 1.45456 18.6759 1.45456C18.3547 1.45456 18.0705 1.65307 17.8969 1.95758H16.7275C16.635 1.95758 16.5745 1.95856 16.5745 1.95856C16.5745 1.95856 16.5014 1.95861 16.4545 1.95856C16.348 1.95844 16.3374 1.95856 16.1816 1.95758H15.0123C14.8387 1.65315 14.5544 1.45456 14.2332 1.45456C13.7506 1.45456 13.1829 2.09861 13.6168 2.62896C13.6168 2.62896 13.626 2.64011 13.6145 2.65448C13.1828 3.19838 13.7047 3.85456 14.2331 3.85456C14.5556 3.85456 14.8408 3.6544 15.0142 3.34794H17.8948C18.0682 3.6544 18.3533 3.85456 18.6759 3.85456C19.2044 3.85448 19.7263 3.19838 19.2945 2.65448Z" fill="#FCECEA"/>
    <defs>
        <linearGradient id="paint0_linear_602_4028" x1="3.70454" y1="42.2202" x2="-15.4078" y2="16.9077" gradientUnits="userSpaceOnUse">
            <stop offset="0.298343" stop-color="#4552CB"/>
            <stop offset="1" stop-color="#4596EA"/>
        </linearGradient>
    </defs>
</svg>
