<svg width="35" height="35" viewBox="0 0 35 35" fill="none" xmlns="http://www.w3.org/2000/svg">
    <path d="M7.45454 19.5011L15.3295 27.4546L22.767 23.2685L28.4545 19.5011L26.267 13.222L22.767 11.129L19.7045 9.45456H15.3295L7.45454 14.4778V19.5011Z" fill="#ED6D4E"/>
    <path fill-rule="evenodd" clip-rule="evenodd" d="M23.1324 17.5969C22.6993 17.8722 22.3735 18.22 22.1537 18.6409C22.046 18.8721 21.9802 19.0884 21.9565 19.2903C21.9242 19.5415 21.9522 19.7845 22.0396 20.0204C22.1677 20.3152 22.365 20.5278 22.6322 20.6576C22.8015 20.7454 22.9958 20.8052 23.2155 20.8374C23.5248 20.8654 23.8595 20.8141 24.2179 20.6851C24.4589 20.5774 24.6863 20.4404 24.9001 20.2745C25.1851 20.0412 25.3998 19.782 25.5436 19.4969L25.642 19.284C25.6959 19.169 25.7341 19.026 25.7557 18.8564C25.8036 18.5751 25.7811 18.3146 25.6874 18.0754C25.5695 17.7941 25.3841 17.5812 25.1304 17.4378C24.9709 17.3419 24.7864 17.2834 24.5768 17.2613C24.2514 17.2215 23.9201 17.2635 23.5829 17.3869C23.4289 17.4471 23.2783 17.5171 23.1324 17.5969ZM23.4675 12.7588C23.2579 12.6828 23.0505 12.6557 22.8448 12.6782C22.5733 12.6917 22.3005 12.769 22.0252 12.9085C21.7418 13.0481 21.4682 13.2487 21.2052 13.51C20.9872 13.7395 20.8022 14.0026 20.6482 14.2999C20.574 14.4573 20.5235 14.582 20.4955 14.6737C20.4323 14.8612 20.389 15.0554 20.367 15.2574C20.3373 15.5386 20.3712 15.8156 20.4683 16.0888C20.5863 16.4099 20.795 16.6517 21.0941 16.8134C21.2633 16.9012 21.4495 16.9568 21.6506 16.9809C21.8984 17.0004 22.1707 16.9631 22.4676 16.8668C22.7391 16.7671 23.0055 16.6127 23.2669 16.4032C23.6283 16.1138 23.9074 15.7681 24.1047 15.3651C24.2243 15.1394 24.3024 14.9112 24.3384 14.6796C24.4003 14.3805 24.4071 14.0984 24.3592 13.8329C24.2777 13.4044 24.0631 13.085 23.7161 12.8754L23.7042 12.8576L23.4917 12.7588H23.4675ZM14.3589 17.7288C14.0776 17.8103 13.8057 17.918 13.5423 18.0521C13.1677 18.2536 12.8614 18.4809 12.6239 18.7342C12.4644 18.8958 12.3176 19.0943 12.1839 19.3289C12.0779 19.5228 12.0037 19.715 11.9595 19.9071C11.8357 20.4416 11.9086 20.9562 12.178 21.4508C12.3418 21.7227 12.564 21.9429 12.8453 22.1122L12.995 22.1932L13.5189 22.3994C13.7026 22.4469 14.0106 22.5101 14.4437 22.5877L15.3112 22.7578L15.7393 22.8987C15.9704 23.0064 16.138 23.0921 16.2419 23.1557C16.4473 23.2817 16.67 23.44 16.9092 23.6313C17.0848 23.7751 17.3423 23.9918 17.6809 24.2807C17.8887 24.4424 18.0542 24.5514 18.178 24.607L18.2226 24.6282L18.2404 24.646L18.4618 24.7508H18.483L18.5636 24.7868L18.8233 24.8492C19.0689 24.895 19.3226 24.8971 19.5839 24.8555C19.9449 24.7877 20.2588 24.6523 20.5265 24.4487C20.8115 24.2213 21.0283 23.924 21.1755 23.5566C21.2616 23.3534 21.3214 23.1146 21.3554 22.8414C21.3872 22.5203 21.374 22.2059 21.3159 21.8988C21.2527 21.5319 21.1475 21.1785 21.002 20.8391C20.8764 20.5697 20.7767 20.28 20.7029 19.9686C20.6308 19.6535 20.5761 19.351 20.5383 19.0617L20.4272 18.248C20.3733 17.9587 20.3071 17.7072 20.2265 17.4938C20.0789 17.1366 19.8638 16.8426 19.5805 16.611C19.3972 16.4693 19.1864 16.3425 18.9492 16.2309C18.7537 16.1508 18.5467 16.102 18.3269 16.0842C18.0733 16.0744 17.7899 16.1211 17.4768 16.225C17.2656 16.309 17.0594 16.4006 16.8579 16.4999C16.6721 16.5941 16.404 16.7425 16.0532 16.9457C15.6905 17.1532 15.3829 17.3148 15.1314 17.4306C14.876 17.5638 14.6189 17.6626 14.3589 17.7288ZM16.6454 12.1004C16.5834 12.2815 16.5304 12.4682 16.4863 12.6599C16.4286 13.0409 16.4294 13.3845 16.4893 13.692C16.5372 13.9894 16.6441 14.2626 16.8095 14.512C16.9555 14.7195 17.1192 14.8692 17.3033 14.9613C17.5184 15.0847 17.7542 15.1407 18.0092 15.1288C18.2166 15.117 18.4292 15.0559 18.6468 14.9464C18.9577 14.7691 19.2152 14.5256 19.4184 14.2159C19.5101 14.0942 19.597 13.9466 19.6789 13.7731L19.8104 13.3781C19.8804 13.1588 19.9249 12.9242 19.9423 12.6752C19.9521 12.282 19.8918 11.9142 19.7595 11.571C19.6717 11.3491 19.5453 11.1548 19.3794 10.9873C19.1796 10.7819 18.9497 10.6572 18.6879 10.6135C18.4368 10.5597 18.1776 10.5868 17.9104 10.6941C17.6851 10.7858 17.4781 10.9245 17.291 11.1099C17.0615 11.3334 16.8732 11.6058 16.7251 11.9269L16.6454 12.1004ZM14.4132 12.4559C14.148 12.3884 13.8846 12.4092 13.6233 12.5191C13.4057 12.615 13.211 12.7656 13.0396 12.9709C12.9658 13.0629 12.8941 13.1673 12.8241 13.2852L12.794 13.3183L12.6684 13.5877L12.6086 13.7909C12.5267 14.0662 12.4928 14.3406 12.5068 14.6138C12.517 14.9248 12.5717 15.2014 12.6718 15.4427C12.7855 15.7359 12.942 15.9764 13.1414 16.1639C13.3068 16.312 13.4922 16.4184 13.698 16.4842C13.9813 16.5622 14.2634 16.541 14.5447 16.4214C14.764 16.3298 14.9617 16.1754 15.1373 15.9577C15.2429 15.8339 15.3439 15.6697 15.4389 15.4644L15.5467 15.1772C15.6145 14.9574 15.6493 14.7513 15.6514 14.5578C15.6714 14.1447 15.6056 13.7582 15.4542 13.3968C15.3422 13.1495 15.1916 12.9429 15.0024 12.7779C14.823 12.6086 14.627 12.5025 14.4132 12.4559ZM22.6925 1.74119C23.5523 2.60106 23.9821 3.63826 23.9821 4.85277V10.93H30.0563C31.2708 10.93 32.3085 11.3589 33.1679 12.2166C34.0257 13.0765 34.4545 14.1141 34.4545 15.3286V19.5805C34.4545 20.795 34.0257 21.8318 33.1679 22.6891C32.3085 23.549 31.2708 23.9791 30.0563 23.9791H23.9821V30.0559C23.9821 31.2709 23.5523 32.3072 22.6925 33.165C21.8347 34.0244 20.7984 34.4546 19.5839 34.4546H15.332C14.1171 34.4546 13.0799 34.0244 12.22 33.165C11.3623 32.3072 10.9334 31.2709 10.9334 30.0559V23.9795H4.85318C3.63824 23.9795 2.60189 23.5494 1.74414 22.6895C0.884693 21.8322 0.454544 20.7954 0.454544 19.5809V15.3291C0.454544 14.1141 0.884693 13.0765 1.74414 12.2171C2.60189 11.3593 3.63824 10.9304 4.85318 10.9304H10.9334V4.85277C10.9334 3.63783 11.3623 2.60064 12.22 1.74119C13.0799 0.883436 14.1171 0.454559 15.332 0.454559H19.5839C20.7984 0.454559 21.8347 0.883436 22.6925 1.74119Z" fill="#FFCF6F"/>
</svg>
